# xmcd
#
# Track frame offsets: 
#        150
#        21778
#        41029
#        60735
#        82363
#        101615
#
# Disc length: 1613 seconds
#
# Revision: 3
# Processed by: cddbd v1.5.2PL0 Copyright (c) Steve Scherf et al.
# Submitted via: ExactAudioCopy v1.0b6
#
DISCID=4d064b06
DTITLE=ARASHI - Believe│曇りのち、快晴
DYEAR=2009
DGENRE=JPop
TTITLE0=Believe
TTITLE1=曇りのち、快晴
TTITLE2=トビラ
TTITLE3=Believe (オリジナル・カラオケ)
TTITLE4=曇りのち、快晴 (オリジナル・カラオケ)
TTITLE5=トビラ (オリジナル・カラオケ)
EXTD=YEAR: 2009
EXTT0=
EXTT1=
EXTT2=
EXTT3=
EXTT4=
EXTT5=
PLAYORDER=
